# xmcd CD database file
#
# Track frame offsets:
#	150
#	27365
#	49247
#	73090
#	96685
#	121598
#	150409
#	174057
#	191446
#
# Disc length: 2985 seconds
#
# Revision: 0
# Processed by: cddbd v1.4PL0 Copyright (c) Steve Scherf et al.
# Submitted via: CDex 1.40Release
#
DISCID=6e0ba709
DTITLE=Little Arthur Duncan - Live In Chicago!
DYEAR=2000
DGENRE=Blues
TTITLE0=Mama, Talk To Your Daughter
TTITLE1=Pretty Girls Everywhere
TTITLE2=Asked Her For Water
TTITLE3=I'm A King Bee
TTITLE4=Forty Four Blues
TTITLE5=Had Nowhere To Go
TTITLE6=Going On Main Street
TTITLE7=Duncan Donuts
TTITLE8=Going Through Mississippi
EXTD=YEAR: 2000 ID3G: 0
EXTT0=
EXTT1=
EXTT2=
EXTT3=
EXTT4=
EXTT5=
EXTT6=
EXTT7=
EXTT8=
PLAYORDER=
